<?xml version="1.0" encoding="UTF-8" standalone="no"?>
<!-- Created with Inkscape (http://www.inkscape.org/) -->

<svg
   width="6.9177251in"
   height="1.8751704in"
   viewBox="0 0 175.71022 47.629327"
   version="1.1"
   id="svg5"
   inkscape:version="1.2.2 (b0a8486541, 2022-12-01)"
   sodipodi:docname="databus_workflow.svg"
   xmlns:inkscape="http://www.inkscape.org/namespaces/inkscape"
   xmlns:sodipodi="http://sodipodi.sourceforge.net/DTD/sodipodi-0.dtd"
   xmlns="http://www.w3.org/2000/svg"
   xmlns:svg="http://www.w3.org/2000/svg">
  <sodipodi:namedview
     id="namedview7"
     pagecolor="#ffffff"
     bordercolor="#000000"
     borderopacity="0.25"
     inkscape:showpageshadow="2"
     inkscape:pageopacity="0.0"
     inkscape:pagecheckerboard="0"
     inkscape:deskcolor="#d1d1d1"
     inkscape:document-units="mm"
     showgrid="false"
     inkscape:zoom="1.9649803"
     inkscape:cx="238.93369"
     inkscape:cy="16.794061"
     inkscape:window-width="2494"
     inkscape:window-height="1524"
     inkscape:window-x="66"
     inkscape:window-y="37"
     inkscape:window-maximized="1"
     inkscape:current-layer="g2271" />
  <defs
     id="defs2">
    <marker
       style="overflow:visible"
       id="Arrow5"
       refX="0"
       refY="0"
       orient="auto-start-reverse"
       inkscape:stockid="Arrow5"
       markerWidth="5.8874264"
       markerHeight="6.6094756"
       viewBox="0 0 5.8874262 6.6094758"
       inkscape:isstock="true"
       inkscape:collect="always"
       preserveAspectRatio="xMidYMid">
      <path
         transform="scale(0.5)"
         style="fill:context-stroke;fill-rule:evenodd;stroke:context-stroke;stroke-width:1pt"
         d="m 6,0 c -3,1 -7,3 -9,5 0,0 0,-4 2,-5 -2,-1 -2,-5 -2,-5 2,2 6,4 9,5 z"
         id="path8893" />
    </marker>
    <marker
       style="overflow:visible"
       id="Arrow5-9"
       refX="0"
       refY="0"
       orient="auto-start-reverse"
       inkscape:stockid="Arrow5"
       markerWidth="5.8874264"
       markerHeight="6.6094756"
       viewBox="0 0 5.8874262 6.6094758"
       inkscape:isstock="true"
       inkscape:collect="always"
       preserveAspectRatio="xMidYMid">
      <path
         transform="scale(0.5)"
         style="fill:context-stroke;fill-rule:evenodd;stroke:context-stroke;stroke-width:1pt"
         d="m 6,0 c -3,1 -7,3 -9,5 0,0 0,-4 2,-5 -2,-1 -2,-5 -2,-5 2,2 6,4 9,5 z"
         id="path8893-3" />
    </marker>
    <marker
       style="overflow:visible"
       id="Arrow5-9-0"
       refX="0"
       refY="0"
       orient="auto-start-reverse"
       inkscape:stockid="Arrow5"
       markerWidth="5.8874264"
       markerHeight="6.6094756"
       viewBox="0 0 5.8874262 6.6094758"
       inkscape:isstock="true"
       inkscape:collect="always"
       preserveAspectRatio="xMidYMid">
      <path
         transform="scale(0.5)"
         style="fill:context-stroke;fill-rule:evenodd;stroke:context-stroke;stroke-width:1pt"
         d="m 6,0 c -3,1 -7,3 -9,5 0,0 0,-4 2,-5 -2,-1 -2,-5 -2,-5 2,2 6,4 9,5 z"
         id="path8893-3-6" />
    </marker>
  </defs>
  <g
     inkscape:label="Layer 1"
     inkscape:groupmode="layer"
     id="layer1"
     transform="translate(-17.610006,-117.15416)">
    <g
       id="g1082"
       transform="matrix(1.0821708,0,0,1.0821708,-14.242114,110.09369)">
      <path
         d="m 146.38363,18.940413 h -3.0054 c -0.18501,0 -0.33383,0.150895 -0.33383,0.333825 v 3.008577 c 0,0.185002 0.1509,0.333825 0.33383,0.333825 h 3.00857 c 0.18501,0 0.33383,-0.150895 0.33383,-0.333825 l -0.001,-3.008577 c 0,-0.186034 -0.1509,-0.333825 -0.33589,-0.333825 z m -0.33383,3.005402 h -2.33886 v -2.338863 h 2.33886 z"
         id="path871"
         style="stroke-width:0.264583" />
      <path
         d="m 146.38363,24.377865 h -3.0054 c -0.18501,0 -0.33383,0.150895 -0.33383,0.333825 v 3.008577 c 0,0.185002 0.1509,0.333825 0.33383,0.333825 h 3.00857 c 0.18501,0 0.33383,-0.150895 0.33383,-0.333825 l -0.001,-3.009635 c 0,-0.185002 -0.1509,-0.332793 -0.33589,-0.332793 z m -0.33383,3.005402 h -2.33886 v -2.338863 h 2.33886 z"
         id="path873"
         style="stroke-width:0.264583" />
      <path
         d="m 146.38363,29.854476 h -3.0054 c -0.18501,0 -0.33383,0.150894 -0.33383,0.333824 v 3.008577 c 0,0.185002 0.1509,0.333825 0.33383,0.333825 h 3.00857 c 0.18501,0 0.33383,-0.150894 0.33383,-0.333825 l -0.001,-3.008577 c 0,-0.186033 -0.1509,-0.333824 -0.33589,-0.333824 z m -0.33383,3.005402 h -2.33886 v -2.338864 h 2.33886 z"
         id="path875"
         style="stroke-width:0.264583" />
      <path
         d="m 128.70417,24.37469 h -3.0054 c -0.185,0 -0.33383,0.150895 -0.33383,0.333825 v 3.008577 c 0,0.185002 0.1509,0.333825 0.33383,0.333825 h 3.00858 c 0.185,0 0.33382,-0.150895 0.33382,-0.333825 l -0.001,-3.008577 c -0.002,-0.185002 -0.1509,-0.333825 -0.33589,-0.333825 z m -0.33279,3.008577 h -2.33887 v -2.338863 h 2.33887 z"
         id="path877"
         style="stroke-width:0.264583" />
      <path
         d="m 128.70417,29.812142 h -3.0054 c -0.185,0 -0.33383,0.150895 -0.33383,0.333825 v 3.008577 c 0,0.185002 0.1509,0.333825 0.33383,0.333825 h 3.00858 c 0.185,0 0.33382,-0.150895 0.33382,-0.333825 l -0.001,-3.008577 c -0.002,-0.186034 -0.1509,-0.333825 -0.33589,-0.333825 z m -0.33279,3.005402 h -2.33887 v -2.338863 h 2.33887 z"
         id="path879"
         style="stroke-width:0.264583" />
      <path
         d="m 128.70417,35.288753 h -3.0054 c -0.185,0 -0.33383,0.150894 -0.33383,0.333824 v 3.008578 c 0,0.185001 0.1509,0.333824 0.33383,0.333824 h 3.00858 c 0.185,0 0.33382,-0.150894 0.33382,-0.333824 l -0.001,-3.008578 c -0.002,-0.182935 -0.1509,-0.333824 -0.33589,-0.333824 z m -0.33279,3.008577 h -2.33887 v -2.338864 h 2.33887 z"
         id="path881"
         style="stroke-width:0.264583" />
      <path
         d="m 142.14712,21.112907 c 0.185,0 0.33383,-0.150895 0.33383,-0.333825 0,-0.185002 -0.1509,-0.333825 -0.33383,-0.333825 l -6.12166,10e-4 c -0.18501,0 -0.33383,0.150895 -0.33383,0.333825 v 5.101431 l -5.85999,-0.001 c -0.185,0 -0.33383,0.150895 -0.33383,0.333825 0,0.185002 0.1509,0.333825 0.33383,0.333825 h 5.85814 v 4.810125 l -5.85814,-0.001 c -0.185,0 -0.33383,0.150895 -0.33383,0.333825 0,0.185002 0.1509,0.333825 0.33383,0.333825 h 5.85814 v 4.767791 l -5.85814,-0.001 c -0.185,0 -0.33383,0.150895 -0.33383,0.333825 0,0.18293 0.1509,0.333825 0.33383,0.333825 h 6.1939 c 0.185,0 0.33382,-0.150895 0.33382,-0.333825 l -0.001,-5.098521 h 5.7867 c 0.185,0 0.33383,-0.150894 0.33383,-0.333824 0,-0.185002 -0.1509,-0.333825 -0.33383,-0.333825 l -5.7867,0.001 v -4.813036 h 5.7867 c 0.185,0 0.33383,-0.150894 0.33383,-0.333824 0,-0.185002 -0.1509,-0.333825 -0.33383,-0.333825 l -5.7867,0.001 v -4.767792 z"
         id="path883"
         style="stroke-width:0.264583" />
    </g>
    <text
       xml:space="preserve"
       style="font-weight:bold;font-size:2.64583px;font-family:'DejaVu Sans';-inkscape-font-specification:'DejaVu Sans, Bold';text-align:center;text-anchor:middle;fill:#000000;fill-opacity:0.8;stroke-width:0.499999"
       x="132.96909"
       y="157.64439"
       id="text1809"><tspan
         sodipodi:role="line"
         id="tspan1807"
         style="stroke-width:0.5"
         x="132.96909"
         y="157.64439">Data Mapping</tspan><tspan
         sodipodi:role="line"
         style="stroke-width:0.5"
         x="132.96909"
         y="160.95168"
         id="tspan1811">(csv/yaml)</tspan></text>
    <g
       id="g2271"
       transform="translate(0.18488671)">
      <g
         id="g1087"
         transform="translate(0,108.92587)">
        <path
           d="m 22.224597,41.727962 c 0,0.43098 0.3514,0.7834 0.78341,0.7834 h 16.01549 c 0.43098,0 0.78341,-0.35139 0.78341,-0.7834 l -0.001,-19.59981 c 0,-0.43098 -0.35139,-0.7834 -0.7834,-0.7834 h -11.62315 c -0.0424,0 -0.0816,0.008 -0.11885,0.0238 -0.0372,0.0155 -0.0692,0.0372 -0.0951,0.063 0,0 -0.003,0 -0.005,0.003 l -4.86595,4.86595 c 0,0 -0.0186,0.0289 -0.0289,0.0455 -0.0134,0.0186 -0.0269,0.032 -0.0341,0.0527 -0.0103,0.0207 -0.0103,0.0455 -0.0155,0.0692 -0.003,0.0155 -0.0103,0.0289 -0.0103,0.0455 v 15.21354 z m 16.96747,-19.59981 v 19.59981 c 0,0.093 -0.0744,0.1664 -0.1664,0.1664 l -16.0155,10e-4 c -0.093,0 -0.16639,-0.0744 -0.16639,-0.1664 v -14.89736 l 4.0722,0.061 h 0.0103 c 0.20671,0 0.40204,-0.0796 0.54983,-0.2253 0.1509,-0.1478 0.23255,-0.34624 0.23255,-0.55812 l 0.001,-4.14866 h 11.31623 c 0.093,0 0.1664,0.0744 0.1664,0.1664 z m -15.92474,4.09284 3.82613,-3.82614 v 3.71237 c 0,0.0455 -0.0186,0.0868 -0.0506,0.11886 -0.032,0.032 -0.0765,0.0506 -0.11886,0.0475 l -3.65363,-0.0527 z"
           id="path369"
           style="stroke-width:0.264583" />
        <path
           d="m 37.623087,28.011962 h -13.21276 c -0.1695,0 -0.31007,0.13746 -0.31007,0.31006 v 12.07585 c 0,0.1695 0.13746,0.31007 0.31007,0.31007 h 13.21355 c 0.1695,0 0.31007,-0.13746 0.31007,-0.31007 l -0.001,-12.07585 c 0,-0.16949 -0.13745,-0.31006 -0.31006,-0.31006 z m -5.60679,2.60345 v 1.34151 h -2.00297 v -1.34151 z m 2.61895,0 v 1.34151 h -2.00297 v -1.34151 z m 2.67785,0 v 1.34151 h -2.06086 v -1.34151 z m -5.29696,3.37872 h -2.00297 v -1.4211 h 2.00297 z m 0.61598,-1.4211 h 2.00298 v 1.4211 h -2.00298 z m -3.23585,1.4211 h -4.6789 v -1.4211 h 4.68075 v 1.4211 z m 0,0.61598 v 1.4211 l -4.6789,0.001 v -1.42111 h 4.68075 z m 0.61597,0 h 2.00298 v 1.4211 h -2.00298 z m 2.61895,0 h 2.00298 v 1.4211 h -2.00298 z m 2.61896,0 h 2.06086 v 1.4211 h -2.06086 z m 0,-0.61598 v -1.4211 h 2.06086 v 1.4211 z m -5.85497,-2.03708 h -4.67783 v -1.34151 h 4.68074 v 1.34151 z m -4.68074,4.69107 h 4.68074 v 1.4211 h -4.67783 v -1.4211 z m 5.29696,0 h 2.00297 v 1.4211 h -2.00297 z m 2.00297,2.03708 v 1.4025 h -2.00297 v -1.4025 z m 0.61598,0 h 2.00297 v 1.4025 h -2.00297 z m 0,-0.61598 v -1.4211 h 2.00297 v 1.4211 z m 2.61895,-1.4211 h 2.06086 v 1.4211 h -2.06086 z m 2.06086,-8.02217 v 1.37046 h -12.59257 v -1.37046 h 12.59654 z m -12.59257,10.06237 h 4.68074 v 1.4025 h -4.68074 z m 10.5357,1.4025 v -1.4025 h 2.06087 v 1.4025 z"
           id="path371"
           style="stroke-width:0.264583" />
        <path
           d="m 29.878727,26.765512 h 7.74436 c 0.1695,0 0.31006,-0.13746 0.31006,-0.31007 v -3.00037 c 0,-0.1695 -0.13746,-0.31007 -0.31006,-0.31007 h -7.74436 c -0.16949,0 -0.31006,0.13746 -0.31006,0.31007 v 3.00037 c 0,0.1695 0.13746,0.31007 0.31006,0.31007 z m 0.31007,-3.00038 h 7.12814 v 2.38435 h -7.12814 z"
           id="path373"
           style="stroke-width:0.264583" />
      </g>
      <g
         id="g1090"
         transform="matrix(0.90375023,0,0,0.90375023,6.3969324,111.62882)">
        <path
           d="m 85.114916,25.189744 -4.47728,-4.477279 C 80.405092,20.47992 80.08987,20.348663 79.761204,20.348663 H 67.702025 c -0.685218,0 -1.240234,0.555017 -1.240234,1.240234 v 21.497396 c 0,0.685218 0.555016,1.240234 1.240234,1.240234 h 16.536458 c 0.685218,0 1.240235,-0.555016 1.240235,-1.240234 V 26.066177 c 0,-0.328666 -0.131258,-0.64389 -0.363802,-0.876433 z m -0.632513,0.533294 h -3.551238 c -0.228409,0 -0.413411,-0.185002 -0.413411,-0.413411 V 21.75839 Z M 84.238489,43.499863 H 67.70203 c -0.228409,0 -0.413411,-0.185002 -0.413411,-0.413411 V 21.589056 c 0,-0.228409 0.185002,-0.413411 0.413411,-0.413411 h 11.9888 v 4.134114 c 0,0.685218 0.555017,1.240235 1.240235,1.240235 h 3.72057 v 16.536458 c 0,0.109553 -0.04341,0.214974 -0.120922,0.292497 -0.07752,0.07752 -0.182936,0.120922 -0.292497,0.120922 z M 70.182499,26.963405 c -0.501253,0 -0.953955,0.301784 -1.146175,0.765837 -0.191204,0.46302 -0.08578,0.996315 0.268711,1.351862 0.355547,0.354488 0.888841,0.459925 1.351862,0.26871 0.464053,-0.192235 0.765837,-0.644921 0.765837,-1.146175 0,-0.685217 -0.555017,-1.240234 -1.240235,-1.240234 z m 0,1.653646 c -0.167431,0 -0.31832,-0.100253 -0.382402,-0.255281 -0.06305,-0.153995 -0.02791,-0.331761 0.08992,-0.450612 0.118856,-0.117821 0.296624,-0.15296 0.450612,-0.08992 0.15503,0.06408 0.25528,0.214974 0.25528,0.382403 0,0.109553 -0.04341,0.214974 -0.120922,0.292497 -0.07752,0.07752 -0.182936,0.120922 -0.292497,0.120922 z m 12.815887,-0.413412 c 0,0.109554 -0.04341,0.214974 -0.120922,0.292497 -0.07752,0.07752 -0.182936,0.120923 -0.292497,0.120923 h -9.843294 c -0.228409,0 -0.413411,-0.185002 -0.413411,-0.413412 0,-0.228409 0.185002,-0.413411 0.413411,-0.413411 h 9.843294 c 0.109553,0 0.214974,0.04341 0.292497,0.120922 0.07752,0.07751 0.120922,0.182936 0.120922,0.292497 z m -12.815887,2.480469 c -0.501253,0 -0.953955,0.301784 -1.146175,0.765837 -0.191204,0.46302 -0.08578,0.996315 0.268711,1.351862 0.355547,0.354488 0.888841,0.459925 1.351862,0.26871 0.464053,-0.192235 0.765837,-0.644921 0.765837,-1.146174 0,-0.685218 -0.555017,-1.240235 -1.240235,-1.240235 z m 0,1.653646 c -0.167431,0 -0.31832,-0.100253 -0.382402,-0.255281 -0.06305,-0.153995 -0.02791,-0.331761 0.08992,-0.450611 0.118856,-0.117822 0.296624,-0.152961 0.450612,-0.08992 0.15503,0.06408 0.25528,0.214973 0.25528,0.382402 0,0.109553 -0.04341,0.214974 -0.120922,0.292497 -0.07752,0.07752 -0.182936,0.120922 -0.292497,0.120922 z m 12.815887,-0.413411 c 0,0.109553 -0.04341,0.214973 -0.120922,0.292496 -0.07752,0.07752 -0.182936,0.120923 -0.292497,0.120923 h -9.843294 c -0.228409,0 -0.413411,-0.185002 -0.413411,-0.413412 0,-0.228409 0.185002,-0.413411 0.413411,-0.413411 h 9.843294 c 0.109553,0 0.214974,0.04341 0.292497,0.120923 0.07752,0.07751 0.120922,0.182935 0.120922,0.292496 z m -12.815887,2.480468 c -0.501253,0 -0.953955,0.301784 -1.146175,0.765837 -0.191204,0.463021 -0.08578,0.996315 0.268711,1.351862 0.355547,0.354488 0.888841,0.459925 1.351862,0.268711 0.464053,-0.192236 0.765837,-0.644922 0.765837,-1.146175 0,-0.685218 -0.555017,-1.240235 -1.240235,-1.240235 z m 0,1.653646 c -0.167431,0 -0.31832,-0.100253 -0.382402,-0.255281 -0.06305,-0.153995 -0.02791,-0.331761 0.08992,-0.450611 0.118856,-0.117822 0.296624,-0.152961 0.450612,-0.08992 0.15503,0.06408 0.25528,0.214974 0.25528,0.382402 0,0.109553 -0.04341,0.214974 -0.120922,0.292497 -0.07752,0.07752 -0.182936,0.120922 -0.292497,0.120922 z m 12.815887,-0.413411 c 0,0.109553 -0.04341,0.214974 -0.120922,0.292496 -0.07752,0.07752 -0.182936,0.120923 -0.292497,0.120923 h -9.843294 c -0.228409,0 -0.413411,-0.185002 -0.413411,-0.413411 0,-0.22841 0.185002,-0.413412 0.413411,-0.413412 h 9.843294 c 0.109553,0 0.214974,0.04341 0.292497,0.120923 0.07752,0.07751 0.120922,0.182935 0.120922,0.292496 z m -12.815887,2.480468 c -0.501253,0 -0.953955,0.301784 -1.146175,0.765837 -0.191204,0.463021 -0.08578,0.996315 0.268711,1.351862 0.355547,0.354489 0.888841,0.459925 1.351862,0.268711 0.464053,-0.192236 0.765837,-0.644922 0.765837,-1.146175 0,-0.685218 -0.555017,-1.240235 -1.240235,-1.240235 z m 0,1.653646 c -0.167431,0 -0.31832,-0.100253 -0.382402,-0.25528 -0.06305,-0.153996 -0.02791,-0.331762 0.08992,-0.450612 0.118856,-0.117822 0.296624,-0.152961 0.450612,-0.08992 0.15503,0.06408 0.25528,0.214974 0.25528,0.382402 0,0.109553 -0.04341,0.214974 -0.120922,0.292497 -0.07752,0.07752 -0.182936,0.120922 -0.292497,0.120922 z m 12.815887,-0.413411 c 0,0.109553 -0.04341,0.214974 -0.120922,0.292497 -0.07752,0.07752 -0.182936,0.120922 -0.292497,0.120922 h -9.843294 c -0.228409,0 -0.413411,-0.185002 -0.413411,-0.413411 0,-0.22841 0.185002,-0.413412 0.413411,-0.413412 h 9.843294 c 0.109553,0 0.214974,0.04341 0.292497,0.120923 0.07752,0.07752 0.120922,0.182935 0.120922,0.292497 z"
           id="path502"
           style="stroke-width:0.264583" />
      </g>
      <text
         xml:space="preserve"
         style="font-weight:bold;font-size:2.64583px;font-family:'DejaVu Sans';-inkscape-font-specification:'DejaVu Sans, Bold';text-align:center;text-anchor:middle;fill:#e13131;stroke-width:0.499999"
         x="30.958261"
         y="155.51839"
         id="text1146"><tspan
           sodipodi:role="line"
           id="tspan1144"
           style="fill:#000000;fill-opacity:0.8;stroke-width:0.5"
           x="30.958261"
           y="155.51839">Data Source</tspan></text>
      <text
         xml:space="preserve"
         style="font-weight:bold;font-size:2.64583px;font-family:'DejaVu Sans';-inkscape-font-specification:'DejaVu Sans, Bold';text-align:center;text-anchor:middle;fill:#000000;fill-opacity:0.8;stroke-width:0.499999"
         x="74.996284"
         y="155.68828"
         id="text1756"><tspan
           sodipodi:role="line"
           id="tspan1754"
           style="stroke-width:0.5"
           x="74.996284"
           y="155.68828">Neotoma Fields</tspan></text>
      <path
         style="fill:#000000;fill-opacity:0.8;stroke:#000000;stroke-width:1;stroke-dasharray:none;stroke-opacity:1;marker-end:url(#Arrow5)"
         d="M 41.499302,141.91528 H 60.715304"
         id="path1867" />
      <path
         style="fill:#000000;fill-opacity:0.8;stroke:#000000;stroke-width:1;stroke-dasharray:none;stroke-opacity:1;marker-end:url(#Arrow5-9)"
         d="M 94.565435,141.49678 H 113.78144"
         id="path1867-6" />
      <path
         style="fill:#000000;fill-opacity:0.8;stroke:#000000;stroke-width:1;stroke-dasharray:none;stroke-opacity:1;marker-end:url(#Arrow5-9-0)"
         d="m 147.75352,141.85318 h 19.216"
         id="path1867-6-2" />
      <path
         d="m 188.52349,136.95167 c 0,-0.42995 0.3483,-0.77825 0.77824,-0.77825 0.42995,0 0.77825,0.3483 0.77825,0.77825 0,0.42995 -0.3483,0.77825 -0.77825,0.77825 -0.42994,0 -0.77824,-0.3483 -0.77824,-0.77825 z m 0.77928,6.29523 c 0.42994,0 0.77824,-0.3483 0.77824,-0.77824 0,-0.42995 -0.3483,-0.77825 -0.77824,-0.77825 -0.42995,0 -0.77825,0.3483 -0.77825,0.77825 0,0.42994 0.3483,0.77824 0.77825,0.77824 z m 0,3.95949 c -0.42995,0 -0.77825,0.3483 -0.77825,0.77825 0,0.42994 0.3483,0.77824 0.77825,0.77824 0.42994,0 0.77824,-0.3483 0.77824,-0.77824 0,-0.42995 -0.3483,-0.77825 -0.77824,-0.77825 z m 3.13478,-14.71745 v 16.33273 c 0,1.93374 -4.52993,2.94561 -9.00509,2.94561 -4.47517,0 -9.0051,-1.01182 -9.0051,-2.94561 v -16.33273 c 0,-1.93373 4.52993,-2.9456 9.0051,-2.9456 4.47516,0 9.00509,1.01182 9.00509,2.9456 z m -1.05833,6.93076 c -1.59991,0.97772 -4.78632,1.48313 -7.94676,1.48313 -3.16045,0 -6.34683,-0.50541 -7.94676,-1.48313 v 4.005 c 0,0.6408 2.80511,1.88722 7.94676,1.88722 5.14164,0 7.94676,-1.24642 7.94676,-1.88722 z m 0,-5.46735 c -1.59991,0.97772 -4.78632,1.48313 -7.94676,1.48313 -3.16045,0 -6.34683,-0.50541 -7.94676,-1.48313 v 4.005 c 0,0.6408 2.80511,1.88722 7.94676,1.88722 5.14164,0 7.94676,-1.24642 7.94676,-1.88722 z m -15.89352,-1.46346 c 0,0.64079 2.80511,1.88722 7.94676,1.88722 5.14164,0 7.94676,-1.24643 7.94676,-1.88722 0,-0.64079 -2.80512,-1.88722 -7.94676,-1.88722 -5.14165,0 -7.94676,1.24643 -7.94676,1.88722 z m 15.89352,16.33379 v -3.93462 c -1.59991,0.97771 -4.78632,1.48312 -7.94676,1.48312 -3.16045,0 -6.34683,-0.50541 -7.94676,-1.48312 v 3.93462 c 0,0.64079 2.80511,1.88722 7.94676,1.88722 5.14164,0 7.94676,-1.24643 7.94676,-1.88722 z"
         id="path2489"
         style="stroke-width:0.264583" />
      <text
         xml:space="preserve"
         style="font-weight:bold;font-size:2.64583px;font-family:'DejaVu Sans';-inkscape-font-specification:'DejaVu Sans, Bold';text-align:center;text-anchor:middle;fill:#000000;fill-opacity:0.8;stroke:none;stroke-width:0.499999;stroke-dasharray:none;stroke-opacity:1"
         x="159.36401"
         y="157.59789"
         id="text2697"><tspan
           sodipodi:role="line"
           id="tspan2695"
           style="stroke-width:0.5"
           x="159.36401"
           y="157.59789">DataBUS</tspan><tspan
           sodipodi:role="line"
           style="stroke-width:0.5"
           x="159.36401"
           y="160.90517"
           id="tspan2699">Python</tspan><tspan
           sodipodi:role="line"
           style="stroke-width:0.5"
           x="159.36401"
           y="164.21246"
           id="tspan2701">Package</tspan></text>
      <text
         xml:space="preserve"
         style="font-weight:bold;font-size:2.64583px;font-family:'DejaVu Sans';-inkscape-font-specification:'DejaVu Sans, Bold';text-align:center;text-anchor:middle;fill:#000000;fill-opacity:0.8;stroke:none;stroke-width:0.499999;stroke-dasharray:none;stroke-opacity:1"
         x="183.33492"
         y="157.563"
         id="text2705"><tspan
           sodipodi:role="line"
           id="tspan2703"
           style="stroke-width:0.5"
           x="183.33492"
           y="157.563">Neotoma</tspan><tspan
           sodipodi:role="line"
           style="stroke-width:0.5"
           x="183.33492"
           y="160.87029"
           id="tspan2707">Paleoecology</tspan><tspan
           sodipodi:role="line"
           style="stroke-width:0.5"
           x="183.33492"
           y="164.17758"
           id="tspan2709">Database</tspan></text>
    </g>
    <rect
       style="fill:none;fill-opacity:0.8;stroke:#1e1e1e;stroke-width:0.5;stroke-dasharray:none;stroke-opacity:1"
       id="rect2148"
       width="73.236572"
       height="35.840157"
       x="17.860006"
       y="124.77566" />
    <text
       xml:space="preserve"
       style="font-weight:bold;font-size:2.64583px;font-family:'DejaVu Sans';-inkscape-font-specification:'DejaVu Sans, Bold';text-align:center;text-anchor:middle;fill:none;fill-opacity:0.8;stroke:#1e1e1e;stroke-width:0.499999;stroke-dasharray:none;stroke-opacity:1"
       x="54.41951"
       y="119.16437"
       id="text2335"><tspan
         sodipodi:role="line"
         id="tspan2333"
         style="fill:#000000;fill-opacity:0.8;stroke:none;stroke-width:0.5"
         x="54.41951"
         y="119.16437">Collaborative Work</tspan><tspan
         sodipodi:role="line"
         style="fill:#000000;fill-opacity:0.8;stroke:none;stroke-width:0.5"
         x="54.41951"
         y="122.47166"
         id="tspan2337">Neotoma Team &amp; Data Contributors</tspan></text>
  </g>
</svg>
